<mxfile host="app.diagrams.net" modified="2023-11-18T15:53:24.094Z" agent="Mozilla/5.0 (Windows NT 10.0; Win64; x64) AppleWebKit/537.36 (KHTML, like Gecko) Chrome/119.0.0.0 Safari/537.36" etag="-rDOvW2LS580_hmS6yl9" version="22.1.3" type="device">
  <diagram name="Page-1" id="TwDnuLZALpVGVU55DJPF">
    <mxGraphModel dx="880" dy="478" grid="1" gridSize="10" guides="1" tooltips="1" connect="1" arrows="1" fold="1" page="1" pageScale="1" pageWidth="827" pageHeight="1169" math="0" shadow="0">
      <root>
        <mxCell id="0" />
        <mxCell id="1" parent="0" />
        <mxCell id="AXpqBZYmd3c_td2K92jE-1" value="Main" style="shape=umlActor;verticalLabelPosition=bottom;verticalAlign=top;html=1;" vertex="1" parent="1">
          <mxGeometry x="60" y="40" width="30" height="60" as="geometry" />
        </mxCell>
        <mxCell id="AXpqBZYmd3c_td2K92jE-6" value="Application Manager" style="html=1;whiteSpace=wrap;fillColor=#ffcd28;gradientColor=#ffa500;strokeColor=#d79b00;" vertex="1" parent="1">
          <mxGeometry x="160" y="40" width="90" height="40" as="geometry" />
        </mxCell>
        <mxCell id="AXpqBZYmd3c_td2K92jE-7" value="Metadate Repository" style="html=1;whiteSpace=wrap;fillColor=#ffcd28;gradientColor=#ffa500;strokeColor=#d79b00;" vertex="1" parent="1">
          <mxGeometry x="310" y="40" width="100" height="40" as="geometry" />
        </mxCell>
        <mxCell id="AXpqBZYmd3c_td2K92jE-8" value="Metadate&lt;br&gt;Loader" style="html=1;whiteSpace=wrap;fillColor=#ffcd28;gradientColor=#ffa500;strokeColor=#d79b00;" vertex="1" parent="1">
          <mxGeometry x="470" y="40" width="90" height="40" as="geometry" />
        </mxCell>
        <mxCell id="AXpqBZYmd3c_td2K92jE-9" value="UIBuilder" style="html=1;whiteSpace=wrap;fillColor=#ffcd28;gradientColor=#ffa500;strokeColor=#d79b00;" vertex="1" parent="1">
          <mxGeometry x="640" y="40" width="80" height="40" as="geometry" />
        </mxCell>
        <mxCell id="AXpqBZYmd3c_td2K92jE-10" value="UIApplication Frame" style="html=1;whiteSpace=wrap;fillColor=#ffcd28;gradientColor=#ffa500;strokeColor=#d79b00;" vertex="1" parent="1">
          <mxGeometry x="740" y="40" width="80" height="40" as="geometry" />
        </mxCell>
        <mxCell id="AXpqBZYmd3c_td2K92jE-11" value="" style="html=1;points=[[0,0,0,0,5],[0,1,0,0,-5],[1,0,0,0,5],[1,1,0,0,-5]];perimeter=orthogonalPerimeter;outlineConnect=0;targetShapes=umlLifeline;portConstraint=eastwest;newEdgeStyle={&quot;curved&quot;:0,&quot;rounded&quot;:0};fillColor=#ffcd28;gradientColor=#ffa500;strokeColor=#d79b00;" vertex="1" parent="1">
          <mxGeometry x="70" y="120" width="10" height="350" as="geometry" />
        </mxCell>
        <mxCell id="AXpqBZYmd3c_td2K92jE-12" value="" style="html=1;points=[[0,0,0,0,5],[0,1,0,0,-5],[1,0,0,0,5],[1,1,0,0,-5]];perimeter=orthogonalPerimeter;outlineConnect=0;targetShapes=umlLifeline;portConstraint=eastwest;newEdgeStyle={&quot;curved&quot;:0,&quot;rounded&quot;:0};fillColor=#ffcd28;gradientColor=#ffa500;strokeColor=#d79b00;" vertex="1" parent="1">
          <mxGeometry x="200" y="100" width="10" height="320" as="geometry" />
        </mxCell>
        <mxCell id="AXpqBZYmd3c_td2K92jE-13" value="&lt;font style=&quot;font-size: 18px;&quot;&gt;--&lt;/font&gt;" style="text;html=1;strokeColor=none;fillColor=none;align=center;verticalAlign=middle;whiteSpace=wrap;rounded=0;rotation=90;" vertex="1" parent="1">
          <mxGeometry x="177.5" y="60" width="55" height="60" as="geometry" />
        </mxCell>
        <mxCell id="AXpqBZYmd3c_td2K92jE-15" value="" style="html=1;points=[[0,0,0,0,5],[0,1,0,0,-5],[1,0,0,0,5],[1,1,0,0,-5]];perimeter=orthogonalPerimeter;outlineConnect=0;targetShapes=umlLifeline;portConstraint=eastwest;newEdgeStyle={&quot;curved&quot;:0,&quot;rounded&quot;:0};fillColor=#ffcd28;gradientColor=#ffa500;strokeColor=#d79b00;" vertex="1" parent="1">
          <mxGeometry x="355" y="130" width="10" height="280" as="geometry" />
        </mxCell>
        <mxCell id="AXpqBZYmd3c_td2K92jE-17" value="" style="html=1;points=[[0,0,0,0,5],[0,1,0,0,-5],[1,0,0,0,5],[1,1,0,0,-5]];perimeter=orthogonalPerimeter;outlineConnect=0;targetShapes=umlLifeline;portConstraint=eastwest;newEdgeStyle={&quot;curved&quot;:0,&quot;rounded&quot;:0};fillColor=#ffcd28;gradientColor=#ffa500;strokeColor=#d79b00;" vertex="1" parent="1">
          <mxGeometry x="510" y="140" width="10" height="290" as="geometry" />
        </mxCell>
        <mxCell id="AXpqBZYmd3c_td2K92jE-19" value="" style="html=1;points=[[0,0,0,0,5],[0,1,0,0,-5],[1,0,0,0,5],[1,1,0,0,-5]];perimeter=orthogonalPerimeter;outlineConnect=0;targetShapes=umlLifeline;portConstraint=eastwest;newEdgeStyle={&quot;curved&quot;:0,&quot;rounded&quot;:0};fillColor=#ffcd28;gradientColor=#ffa500;strokeColor=#d79b00;" vertex="1" parent="1">
          <mxGeometry x="675" y="330" width="10" height="90" as="geometry" />
        </mxCell>
        <mxCell id="AXpqBZYmd3c_td2K92jE-20" value="" style="endArrow=none;dashed=1;html=1;rounded=0;" edge="1" parent="1">
          <mxGeometry width="50" height="50" relative="1" as="geometry">
            <mxPoint x="990" y="450" as="sourcePoint" />
            <mxPoint x="995" y="200" as="targetPoint" />
            <Array as="points">
              <mxPoint x="990" y="420" />
            </Array>
          </mxGeometry>
        </mxCell>
        <mxCell id="AXpqBZYmd3c_td2K92jE-21" value="" style="endArrow=none;dashed=1;html=1;rounded=0;" edge="1" parent="1">
          <mxGeometry width="50" height="50" relative="1" as="geometry">
            <mxPoint x="515" y="140" as="sourcePoint" />
            <mxPoint x="514.5" y="80" as="targetPoint" />
          </mxGeometry>
        </mxCell>
        <mxCell id="AXpqBZYmd3c_td2K92jE-22" value="" style="endArrow=none;dashed=1;html=1;rounded=0;" edge="1" parent="1">
          <mxGeometry width="50" height="50" relative="1" as="geometry">
            <mxPoint x="360" y="130" as="sourcePoint" />
            <mxPoint x="359.5" y="80" as="targetPoint" />
            <Array as="points">
              <mxPoint x="359.5" y="100" />
            </Array>
          </mxGeometry>
        </mxCell>
        <mxCell id="AXpqBZYmd3c_td2K92jE-23" value="" style="html=1;points=[[0,0,0,0,5],[0,1,0,0,-5],[1,0,0,0,5],[1,1,0,0,-5]];perimeter=orthogonalPerimeter;outlineConnect=0;targetShapes=umlLifeline;portConstraint=eastwest;newEdgeStyle={&quot;curved&quot;:0,&quot;rounded&quot;:0};fillColor=#ffcd28;gradientColor=#ffa500;strokeColor=#d79b00;" vertex="1" parent="1">
          <mxGeometry x="790" y="350" width="10" height="120" as="geometry" />
        </mxCell>
        <mxCell id="AXpqBZYmd3c_td2K92jE-24" value="" style="endArrow=none;dashed=1;html=1;rounded=0;" edge="1" parent="1">
          <mxGeometry width="50" height="50" relative="1" as="geometry">
            <mxPoint x="794.5" y="350" as="sourcePoint" />
            <mxPoint x="794.5" y="80" as="targetPoint" />
          </mxGeometry>
        </mxCell>
        <mxCell id="AXpqBZYmd3c_td2K92jE-25" value="" style="endArrow=classic;html=1;rounded=0;" edge="1" parent="1" target="AXpqBZYmd3c_td2K92jE-12">
          <mxGeometry width="50" height="50" relative="1" as="geometry">
            <mxPoint x="80" y="160" as="sourcePoint" />
            <mxPoint x="150" y="160" as="targetPoint" />
          </mxGeometry>
        </mxCell>
        <mxCell id="AXpqBZYmd3c_td2K92jE-26" value="" style="endArrow=classic;html=1;rounded=0;entryX=0;entryY=0.621;entryDx=0;entryDy=0;entryPerimeter=0;" edge="1" parent="1" source="AXpqBZYmd3c_td2K92jE-11" target="AXpqBZYmd3c_td2K92jE-12">
          <mxGeometry width="50" height="50" relative="1" as="geometry">
            <mxPoint x="80" y="280" as="sourcePoint" />
            <mxPoint x="130" y="230" as="targetPoint" />
          </mxGeometry>
        </mxCell>
        <mxCell id="AXpqBZYmd3c_td2K92jE-27" value="1:init" style="text;html=1;strokeColor=none;fillColor=none;align=center;verticalAlign=middle;whiteSpace=wrap;rounded=0;" vertex="1" parent="1">
          <mxGeometry x="100" y="130" width="60" height="30" as="geometry" />
        </mxCell>
        <mxCell id="AXpqBZYmd3c_td2K92jE-28" value="2:start()" style="text;html=1;strokeColor=none;fillColor=none;align=center;verticalAlign=middle;whiteSpace=wrap;rounded=0;" vertex="1" parent="1">
          <mxGeometry x="110" y="265" width="60" height="30" as="geometry" />
        </mxCell>
        <mxCell id="AXpqBZYmd3c_td2K92jE-29" value="" style="endArrow=classic;html=1;rounded=0;" edge="1" parent="1">
          <mxGeometry width="50" height="50" relative="1" as="geometry">
            <mxPoint x="210" y="190" as="sourcePoint" />
            <mxPoint x="350" y="190" as="targetPoint" />
          </mxGeometry>
        </mxCell>
        <mxCell id="AXpqBZYmd3c_td2K92jE-30" value="" style="endArrow=classic;html=1;rounded=0;" edge="1" parent="1">
          <mxGeometry width="50" height="50" relative="1" as="geometry">
            <mxPoint x="355" y="240" as="sourcePoint" />
            <mxPoint x="210" y="240" as="targetPoint" />
          </mxGeometry>
        </mxCell>
        <mxCell id="AXpqBZYmd3c_td2K92jE-31" value="1.1:loadMetadata" style="text;html=1;strokeColor=none;fillColor=none;align=center;verticalAlign=middle;whiteSpace=wrap;rounded=0;" vertex="1" parent="1">
          <mxGeometry x="250" y="150" width="60" height="30" as="geometry" />
        </mxCell>
        <mxCell id="AXpqBZYmd3c_td2K92jE-32" value="1.1.1.1.1: Metadata" style="text;html=1;strokeColor=none;fillColor=none;align=center;verticalAlign=middle;whiteSpace=wrap;rounded=0;" vertex="1" parent="1">
          <mxGeometry x="240" y="210" width="60" height="30" as="geometry" />
        </mxCell>
        <mxCell id="AXpqBZYmd3c_td2K92jE-35" value="" style="line;strokeWidth=1;fillColor=none;align=left;verticalAlign=middle;spacingTop=-1;spacingLeft=3;spacingRight=3;rotatable=0;labelPosition=right;points=[];portConstraint=eastwest;strokeColor=inherit;" vertex="1" parent="1">
          <mxGeometry x="210" y="250" width="40" height="8" as="geometry" />
        </mxCell>
        <mxCell id="AXpqBZYmd3c_td2K92jE-37" value="" style="endArrow=none;html=1;rounded=0;" edge="1" parent="1">
          <mxGeometry width="50" height="50" relative="1" as="geometry">
            <mxPoint x="249" y="255" as="sourcePoint" />
            <mxPoint x="249" y="255" as="targetPoint" />
            <Array as="points">
              <mxPoint x="249" y="285" />
            </Array>
          </mxGeometry>
        </mxCell>
        <mxCell id="AXpqBZYmd3c_td2K92jE-38" value="" style="endArrow=classic;html=1;rounded=0;" edge="1" parent="1">
          <mxGeometry width="50" height="50" relative="1" as="geometry">
            <mxPoint x="250" y="284.5" as="sourcePoint" />
            <mxPoint x="210" y="284.5" as="targetPoint" />
          </mxGeometry>
        </mxCell>
        <mxCell id="AXpqBZYmd3c_td2K92jE-39" value="&lt;font style=&quot;font-size: 8px;&quot;&gt;1.1.1.1.1.1:buildApplication&lt;/font&gt;" style="text;html=1;strokeColor=none;fillColor=none;align=center;verticalAlign=middle;whiteSpace=wrap;rounded=0;" vertex="1" parent="1">
          <mxGeometry x="260" y="255" width="60" height="30" as="geometry" />
        </mxCell>
        <mxCell id="AXpqBZYmd3c_td2K92jE-40" value="" style="endArrow=classic;html=1;rounded=0;" edge="1" parent="1" source="AXpqBZYmd3c_td2K92jE-12">
          <mxGeometry width="50" height="50" relative="1" as="geometry">
            <mxPoint x="210" y="330" as="sourcePoint" />
            <mxPoint x="670" y="340" as="targetPoint" />
          </mxGeometry>
        </mxCell>
        <mxCell id="AXpqBZYmd3c_td2K92jE-41" value="2.1:build application frame" style="text;html=1;strokeColor=none;fillColor=none;align=center;verticalAlign=middle;whiteSpace=wrap;rounded=0;" vertex="1" parent="1">
          <mxGeometry x="590" y="300" width="60" height="30" as="geometry" />
        </mxCell>
        <mxCell id="AXpqBZYmd3c_td2K92jE-42" value="" style="endArrow=classic;html=1;rounded=0;" edge="1" parent="1">
          <mxGeometry width="50" height="50" relative="1" as="geometry">
            <mxPoint x="685" y="360" as="sourcePoint" />
            <mxPoint x="787" y="360" as="targetPoint" />
          </mxGeometry>
        </mxCell>
        <mxCell id="AXpqBZYmd3c_td2K92jE-43" value="2.1.1:init" style="text;html=1;strokeColor=none;fillColor=none;align=center;verticalAlign=middle;whiteSpace=wrap;rounded=0;" vertex="1" parent="1">
          <mxGeometry x="700" y="330" width="60" height="30" as="geometry" />
        </mxCell>
        <mxCell id="AXpqBZYmd3c_td2K92jE-44" value="" style="endArrow=classic;html=1;rounded=0;exitX=1;exitY=1;exitDx=0;exitDy=-5;exitPerimeter=0;" edge="1" parent="1" source="AXpqBZYmd3c_td2K92jE-12" target="AXpqBZYmd3c_td2K92jE-23">
          <mxGeometry width="50" height="50" relative="1" as="geometry">
            <mxPoint x="210" y="389" as="sourcePoint" />
            <mxPoint x="790" y="389" as="targetPoint" />
          </mxGeometry>
        </mxCell>
        <mxCell id="AXpqBZYmd3c_td2K92jE-45" value="2.1.2.1:show" style="text;html=1;strokeColor=none;fillColor=none;align=center;verticalAlign=middle;whiteSpace=wrap;rounded=0;" vertex="1" parent="1">
          <mxGeometry x="700" y="360" width="60" height="30" as="geometry" />
        </mxCell>
        <mxCell id="AXpqBZYmd3c_td2K92jE-46" value="" style="endArrow=classic;html=1;rounded=0;" edge="1" parent="1" source="AXpqBZYmd3c_td2K92jE-19" target="AXpqBZYmd3c_td2K92jE-12">
          <mxGeometry width="50" height="50" relative="1" as="geometry">
            <mxPoint x="675" y="385" as="sourcePoint" />
            <mxPoint x="230" y="380" as="targetPoint" />
          </mxGeometry>
        </mxCell>
        <mxCell id="AXpqBZYmd3c_td2K92jE-47" value="2.1.2:application frame" style="text;html=1;strokeColor=none;fillColor=none;align=center;verticalAlign=middle;whiteSpace=wrap;rounded=0;" vertex="1" parent="1">
          <mxGeometry x="250" y="340" width="60" height="30" as="geometry" />
        </mxCell>
        <mxCell id="AXpqBZYmd3c_td2K92jE-48" value="" style="endArrow=none;dashed=1;html=1;rounded=0;" edge="1" parent="1">
          <mxGeometry width="50" height="50" relative="1" as="geometry">
            <mxPoint x="204.5" y="490" as="sourcePoint" />
            <mxPoint x="204.5" y="420" as="targetPoint" />
          </mxGeometry>
        </mxCell>
        <mxCell id="AXpqBZYmd3c_td2K92jE-49" value="" style="endArrow=none;dashed=1;html=1;rounded=0;" edge="1" parent="1">
          <mxGeometry width="50" height="50" relative="1" as="geometry">
            <mxPoint x="359.5" y="480" as="sourcePoint" />
            <mxPoint x="359.5" y="410" as="targetPoint" />
          </mxGeometry>
        </mxCell>
        <mxCell id="AXpqBZYmd3c_td2K92jE-50" value="" style="endArrow=none;dashed=1;html=1;rounded=0;" edge="1" parent="1">
          <mxGeometry width="50" height="50" relative="1" as="geometry">
            <mxPoint x="515" y="480" as="sourcePoint" />
            <mxPoint x="514.5" y="430" as="targetPoint" />
          </mxGeometry>
        </mxCell>
        <mxCell id="AXpqBZYmd3c_td2K92jE-51" value="" style="endArrow=none;dashed=1;html=1;rounded=0;" edge="1" parent="1">
          <mxGeometry width="50" height="50" relative="1" as="geometry">
            <mxPoint x="680" y="480" as="sourcePoint" />
            <mxPoint x="679.5" y="420" as="targetPoint" />
          </mxGeometry>
        </mxCell>
        <mxCell id="AXpqBZYmd3c_td2K92jE-52" value="" style="endArrow=none;dashed=1;html=1;rounded=0;" edge="1" parent="1">
          <mxGeometry width="50" height="50" relative="1" as="geometry">
            <mxPoint x="794.5" y="480" as="sourcePoint" />
            <mxPoint x="794.5" y="470" as="targetPoint" />
          </mxGeometry>
        </mxCell>
        <mxCell id="AXpqBZYmd3c_td2K92jE-53" value="" style="endArrow=classic;html=1;rounded=0;" edge="1" parent="1" target="AXpqBZYmd3c_td2K92jE-17">
          <mxGeometry width="50" height="50" relative="1" as="geometry">
            <mxPoint x="370" y="160" as="sourcePoint" />
            <mxPoint x="440" y="110" as="targetPoint" />
          </mxGeometry>
        </mxCell>
        <mxCell id="AXpqBZYmd3c_td2K92jE-54" value="1.1.1:load" style="text;html=1;strokeColor=none;fillColor=none;align=center;verticalAlign=middle;whiteSpace=wrap;rounded=0;" vertex="1" parent="1">
          <mxGeometry x="390" y="120" width="60" height="30" as="geometry" />
        </mxCell>
        <mxCell id="AXpqBZYmd3c_td2K92jE-55" value="" style="endArrow=classic;html=1;rounded=0;" edge="1" parent="1">
          <mxGeometry width="50" height="50" relative="1" as="geometry">
            <mxPoint x="510" y="200" as="sourcePoint" />
            <mxPoint x="370" y="200" as="targetPoint" />
          </mxGeometry>
        </mxCell>
        <mxCell id="AXpqBZYmd3c_td2K92jE-56" value="1.1.1.1:Metadata" style="text;html=1;strokeColor=none;fillColor=none;align=center;verticalAlign=middle;whiteSpace=wrap;rounded=0;" vertex="1" parent="1">
          <mxGeometry x="400" y="170" width="60" height="30" as="geometry" />
        </mxCell>
        <mxCell id="AXpqBZYmd3c_td2K92jE-57" value="" style="endArrow=classic;html=1;rounded=0;" edge="1" parent="1" target="AXpqBZYmd3c_td2K92jE-11">
          <mxGeometry width="50" height="50" relative="1" as="geometry">
            <mxPoint x="790" y="450" as="sourcePoint" />
            <mxPoint x="90" y="450" as="targetPoint" />
          </mxGeometry>
        </mxCell>
        <mxCell id="AXpqBZYmd3c_td2K92jE-58" value="2.1.2.1.1:enter security crednetials" style="text;html=1;strokeColor=none;fillColor=none;align=center;verticalAlign=middle;whiteSpace=wrap;rounded=0;" vertex="1" parent="1">
          <mxGeometry x="240" y="430" width="60" height="30" as="geometry" />
        </mxCell>
      </root>
    </mxGraphModel>
  </diagram>
</mxfile>
